# xmcd
#
# Track frame offsets: 
#        150
#        12468
#        23579
#        38085
#        56683
#        74644
#        92172
#        104451
#        125867
#        141739
#        155445
#        168434
#        184458
#        198556
#        212230
#
# Disc length: 2964 seconds
#
# Revision: 0
# Processed by: cddbd v1.5.1PL0 Copyright (c) Steve Scherf et al.
# Submitted via: ExactAudioCopy v0.95a5
#
DISCID=eb0b920f
DTITLE=Various Artist - Les grandes voix de la Country
DYEAR=1999
DGENRE=
TTITLE0=Faron Young-I can't stop loving you
TTITLE1=Roger Miller-King of the road
TTITLE2=Don Williams-Tulsa time
TTITLE3=Reba Mc Entire-What if it's you
TTITLE4=Dolly Parton-Today I stated loving you
TTITLE5=Billy Ray Cyrus-I ain't even left
TTITLE6=Merle Haggard-The bottle let me down
TTITLE7=Kelly Willis-Little honey
TTITLE8=Charlie Sexton-Tennessee plates
TTITLE9=Mel McDaniel-Baby got her blue jeans on
TTITLE10=Kenny Roger-Ruby don't take your love to town
TTITLE11=Terry Clark-Cure for the common heart
TTITLE12=L. Greenwood-Dixie Road
TTITLE13=Graham T. Brown-I tell it like it used to be
TTITLE14=Rusty Draper-More and more
EXTD=
EXTT0=
EXTT1=
EXTT2=
EXTT3=
EXTT4=
EXTT5=
EXTT6=
EXTT7=
EXTT8=
EXTT9=
EXTT10=
EXTT11=
EXTT12=
EXTT13=
EXTT14=
PLAYORDER=
